<svg xmlns="http://www.w3.org/2000/svg" viewBox="0 0 285.78 54.87"><defs><style>.cls-1{fill:#fff;}</style></defs><g id="Capa_2" data-name="Capa 2"><g id="Capa_1-2" data-name="Capa 1"><path class="cls-1" d="M35,39.66c0,7-5,15.21-17.26,15.21-9.54,0-16-6-17.71-12.11l3.86-1.21c1.21,4.31,5.9,9.23,13.85,9.23s13.17-4.31,13.17-11.12c0-6.36-5-8.25-12.64-10.29-7-1.9-16.12-4.55-16.12-14.61C2.12,6.13,9.16,0,17.33,0c7.42,0,13,3.94,15.29,11.05l-3.94,1C26.94,6.66,23,4,17.33,4c-6,0-11.12,4.32-11.12,10.75s5.07,8.55,13.09,10.67C26.49,27.4,35,29.9,35,39.66Z"/><path class="cls-1" d="M62.89,34.81V53.89h-4V34.81L38,.91h4.77L60.92,31,79.09.91h4.69Z"/><path class="cls-1" d="M132.37.91v53h-4L96.12,7.8V53.89h-4V.91h4L128.36,47V.91Z"/><path class="cls-1" d="M186.41,27.4c0,15.13-11,26.49-26.12,26.49H144.48V.91h15.81C175.43.91,186.41,12.26,186.41,27.4Zm-4,0c0-12.87-9.15-22.4-22.1-22.4h-11.8V49.88h11.8C173.24,49.88,182.39,40.34,182.39,27.4Z"/><path class="cls-1" d="M225.46,49.88v4H196.24V.91h28.54V5H200.25V24.45H223v4H200.25V49.88Z"/><path class="cls-1" d="M285.78,27.4c0,15.13-11.66,27.47-26.8,27.47S232.27,42.53,232.27,27.4,243.85,0,259,0,285.78,12.26,285.78,27.4Zm-4,0C281.76,14.53,271.93,4,259,4s-22.7,10.52-22.7,23.39,9.84,23.38,22.7,23.38S281.76,40.34,281.76,27.4Z"/></g></g></svg>