<svg xmlns="http://www.w3.org/2000/svg" viewBox="0 0 293.21 63.1"><defs><style>.cls-1,.cls-2{fill:#1d1d1b;}.cls-2{stroke:#1d1d1b;stroke-miterlimit:10;stroke-width:0.75px;}.cls-3{fill:#1d71b8;}</style></defs><g id="Capa_2" data-name="Capa 2"><g id="Capa_1-2" data-name="Capa 1"><path class="cls-1" d="M248.49,3.91c.58,0,.71.84.38,1.46a8.46,8.46,0,0,1-1,1.22,8.49,8.49,0,0,1-1.64,1.64,2.62,2.62,0,0,0-1.34,1.91,3,3,0,0,1-1.6,2.33c-2,1-2.4,2.78-2.57,4.75-.2,2.4-.47,4.81-.7,7.21a5.35,5.35,0,0,0,.72,4,2.93,2.93,0,0,0,2.06,1.27,1.41,1.41,0,0,1,.71.3c1.36,1.18,2.9,2.18,3.69,3.92a3,3,0,0,0,2.32,1.68,1,1,0,0,1,.82,1,17.51,17.51,0,0,1-.91,3.39c-.23.71-.59,1.39-.78,2.11a3.84,3.84,0,0,0,1.3,4.12A28.3,28.3,0,0,0,252.55,48c.43.29.91.52,1.32.84a2.72,2.72,0,0,1,.91,2.11,33.44,33.44,0,0,0,1.4,7.29,6.24,6.24,0,0,0,.83,1.65c.83,1.2,1.43,1.2,1.87.14.8-1.95,2.41-3,4.15-4,.31-.17.64-.32,1-.46a1.76,1.76,0,0,0,1-1.19c0-.1.06-.2.08-.3a3.2,3.2,0,0,1,3-2.7,2.78,2.78,0,0,0,2.45-2.11,20,20,0,0,1,2-4.28,2.31,2.31,0,0,0-1-3.26c-1.63-1-3.71-1-5.61-.88a1.46,1.46,0,0,1-1.39-.81c-.24-.47-.47-1-.73-1.41a2.6,2.6,0,0,0-1.71-1.32,4.91,4.91,0,0,1-2-1.25,3.8,3.8,0,0,0-3-1.29,6.09,6.09,0,0,1-2.06-.47c-1.53-.5-2.19-.39-3.2.87a.65.65,0,0,1-1.1.09,1.41,1.41,0,0,0-.93-.28,1.83,1.83,0,0,1-1.91-1,1.11,1.11,0,0,1,.05-1.36c.14-.16.34-.43.46-.59a.83.83,0,0,0,.06-.79.69.69,0,0,0-.54-.38,7.66,7.66,0,0,0-1.17,0c-.68,0-.92-.3-.72-.95s.48-1,.71-1.6-.21-1.12-.92-.68a6.75,6.75,0,0,1-2.47,1,.88.88,0,0,1-.89-.75,6,6,0,0,1,1.35-4.46.92.92,0,0,1,.45-.33c1.09-.27,2.18-.58,3.28-.74.86-.11,1.31.28,1.6,1.11.14.43.2.89.35,1.33a5,5,0,0,0,.38.77l.27-.06V24.19A2.16,2.16,0,0,1,251.63,22a2.46,2.46,0,0,0,.87-.49,3.39,3.39,0,0,0,.93-1.34A2.83,2.83,0,0,1,255.58,18a2,2,0,0,0,.84-.65,1.83,1.83,0,0,1,1.77-.87,10.83,10.83,0,0,0,1.5-.07l.05-.22a4.9,4.9,0,0,1-.75-.68,1.84,1.84,0,0,1-.36-1c0-.15.46-.37.73-.41.45-.05.69.24.81.69.24.86,1.28,1.36,2.57,1.22a3.77,3.77,0,0,1-.59-.81,1.21,1.21,0,0,1,0-.89c.34-.54.12-.85-.29-1.15a1.74,1.74,0,0,0-.45-.23,1.52,1.52,0,0,1-1.09-1.45,6.79,6.79,0,0,0-.22-1c-.46.16-.82.32-1.2.41a.74.74,0,0,1-.94-.43,2.18,2.18,0,0,0-1.58-1.25c-.1.43-.19.84-.28,1.26a3.23,3.23,0,0,1-.11.54,2.48,2.48,0,0,1-2.59,1,2.24,2.24,0,0,1-1.65-2,1.7,1.7,0,0,1,1.48-1.42,12.47,12.47,0,0,1,1.37-.15.92.92,0,0,0,.84-.63,4.5,4.5,0,0,1,.64-.9l.9-1.14c-.14,0-.2,0-.21,0-.79,1-1.94.67-3,.7-.64,0-1-.48-1-1.2s-1-.73-1-1.18l.66-.14.75.24a1.55,1.55,0,0,1,.1.89c0,.79.25,1,1,.94.45,0,.9,0,1.35,0h0c1-.68,2-1.41,3.08-2a2.83,2.83,0,0,1,2.9-.39.75.75,0,0,0,1-.07,2,2,0,0,1,3,.09,18.16,18.16,0,0,0,1.69,1.47c1.08.69,1.12.65.83,1.93a2.24,2.24,0,0,0,0,.37H269a11.09,11.09,0,0,1,1.63,0c.68.12.52.32.78.5-.18.25-.21.6-.55.73a2,2,0,0,1-1.08.16,14.85,14.85,0,0,1-2.25-.75c-.46-.18-.8-.2-1.08.25a11.91,11.91,0,0,0-1.08,1.9.93.93,0,0,1-.87.59c-1-.06-1.53-1.13-1.81-2.06a10.38,10.38,0,0,1-.14-1.86,1.15,1.15,0,0,0-.64-.91c-.68-.33-1.36-.68-2.06-1-.7.63-.65,1.27.12,1.86.32.25.77.6.79.93a2.37,2.37,0,0,1-1.31,2.07c-.59.38-1.1,0-1.6-.35s-.83-.53-1.24-.8l-.13.2a4,4,0,0,1,.61.35,4.62,4.62,0,0,1,1.07,1,.67.67,0,0,0,1,.3c1-.48,1.32-.29,1.48.8a4.21,4.21,0,0,1,.09.49.93.93,0,0,0,.67.88,3.66,3.66,0,0,1,.56.28,1.21,1.21,0,0,1,.52,1.78.61.61,0,0,0,0,.44c.09.18.29.31.37.5s.3.65.2.82a1,1,0,0,1-.82.27,19.61,19.61,0,0,1-2.07-.54c-.07.67-.35.93-1.19,1a5.9,5.9,0,0,1-.94,0,1.1,1.1,0,0,0-1.24.63,1.78,1.78,0,0,1-1.21.9,2.07,2.07,0,0,0-1.75,1.8,2.46,2.46,0,0,1-1.37,1.76c-.32.2-.67.36-1,.53a1.33,1.33,0,0,0-.82,1.17,14.71,14.71,0,0,1-.1,1.49c-.05.27-.26.72-.4.72a1.33,1.33,0,0,1-.87-.4,2.13,2.13,0,0,1-.34-.86c-.1-.34-.17-.69-.26-1a1,1,0,0,0-1.2-.83c-1,.18-2,.42-3,.67a.78.78,0,0,0-.43.35,6,6,0,0,0-1.2,3.36c0,.86.34,1.12,1.16.8.61-.24,1.14-.69,1.74-1a1.41,1.41,0,0,1,1,0,.86.86,0,0,1,.42,1.12c-.12.34-.29.65-.42,1s-.24.48-.36.8a.31.31,0,0,0,.3.48c.38,0,.7-.07,1,0a1.16,1.16,0,0,1,1,1.88c-.08.12-.17.23-.26.35-.27.32-.59.63-.28,1.1s.68.9,1.3.79a1.65,1.65,0,0,1,1.76.62c1.16-1.8,2.66-1.79,4.35-1.11a3.55,3.55,0,0,0,1.52.32,3.66,3.66,0,0,1,3.2,1.37A4,4,0,0,0,262.69,37a2.18,2.18,0,0,1,1.1.76,6,6,0,0,1,.85,1.45,1.69,1.69,0,0,0,1.91,1.15c2.31-.19,4.72.16,6.32,1.78a1.86,1.86,0,0,1,.51,1.37,2.42,2.42,0,0,1-.36,1.57,26.21,26.21,0,0,0-2,4.3,3.38,3.38,0,0,1-2.86,2.46,2.69,2.69,0,0,0-2.55,2.33A2.75,2.75,0,0,1,264,56.14a19,19,0,0,0-2.77,1.66,6.69,6.69,0,0,0-2.17,3c-.17.37-.48.39-.88.3A2.93,2.93,0,0,1,255.91,59a34.43,34.43,0,0,1-1.65-8.41,2.16,2.16,0,0,0-1.09-1.68,15.44,15.44,0,0,1-1.77-1,16.15,16.15,0,0,1-2.27-1.84,3.81,3.81,0,0,1-1-3.58,29.56,29.56,0,0,1,.95-2.84c.26-.8.57-1.6.76-2.43a.92.92,0,0,0-.8-1.29,3,3,0,0,1-2.09-1.57,11.12,11.12,0,0,0-3.42-3.76,2.26,2.26,0,0,0-.94-.47,3.53,3.53,0,0,1-2.28-1.52,5.53,5.53,0,0,1-.78-3.83c.24-2.59.51-5.19.75-7.79.19-2.1.8-3.91,2.87-5a2.32,2.32,0,0,0,1.28-1.9A3.54,3.54,0,0,1,246,7.91a22.7,22.7,0,0,0,1.84-1.84c.62-.72.12-.13.53-.62ZM274,4.62a1.83,1.83,0,0,0,.26,1.15,7,7,0,0,0,1,1.19,2.12,2.12,0,0,1,.5,2.08c-.1.32-.34.43-.79.39s-.69.18-.52.7a3.33,3.33,0,0,0,2.19,1.55.82.82,0,0,0,.62-.17c.12-.19,0-.53-.14-.73s-.46-.36-.65-.58c-.36-.37-.67-.68-.42-1.24a.51.51,0,0,1,.53-.2A9.56,9.56,0,0,0,278,9c.15,0,.39-.18.33-.34a4,4,0,0,0-.25-.67,1.64,1.64,0,0,1-.28-.72c0-.55.33-.8.8-.56a3.33,3.33,0,0,1,1.8,2.07,1.6,1.6,0,0,1-.6,1.67,8.59,8.59,0,0,0-1.14,1.34c-.41.47,0,.91.31.72.58-.25.94.22,1.24.63a4,4,0,0,1,.6,1.39.54.54,0,0,1-.39.65c-.6.17-1,.44-1,1.07a1.09,1.09,0,0,0,.68,1.09c.41.19.78.18,1-.27a14.26,14.26,0,0,0,1.06-2.28,1,1,0,0,1,1.3-.7,2.36,2.36,0,0,0,.46.1.34.34,0,0,0,.39-.35,3.14,3.14,0,0,1,0-.54,3.64,3.64,0,0,1,.51-1.69c.4-.58,1-.46,1.28.21a2.15,2.15,0,0,1,.1.8,1.94,1.94,0,0,0,1.22,1.75,2.59,2.59,0,0,1,1.64,1.52,1.61,1.61,0,0,1,.07.83,1.8,1.8,0,0,1-.39.78,1.52,1.52,0,0,1-.8.37,3.37,3.37,0,0,1-2.6-.59c-.68-.45-.83-.37-1.32.3L281.55,21A7.31,7.31,0,0,0,280.17,25c-.05,1.33-.19,2.66-.29,4a3.09,3.09,0,0,0,.71,2.18,18.89,18.89,0,0,1,1.58,2.28,2.42,2.42,0,0,0,2,1.28,26.82,26.82,0,0,0,2.69,0,1.22,1.22,0,0,0,1-.57,3.82,3.82,0,0,1,3.36-1.29.45.45,0,0,1,.26.57,1.51,1.51,0,0,1-.21.3,2,2,0,0,0,0,3c.38.4,1.3.67,1.56,1.12a1.94,1.94,0,0,1,.37,1,1.7,1.7,0,0,1-.13.94l-1.6.37c.45-1,1-1.81-.38-2.89-1.65-1.27-.91-2.76-.26-3.79,0,0,.13-.09,0-.18a3,3,0,0,0-2.6,1.08,2,2,0,0,1-1.37.84,13,13,0,0,1-2.93,0,2.83,2.83,0,0,1-2.15-1.45c-.49-.78-1-1.54-1.56-2.27a3.37,3.37,0,0,1-.81-2.25c.1-1.51.25-3,.33-4.55a7.87,7.87,0,0,1,1.59-4.21c.8-1.13,1.62-2.23,2.43-3.35a1.31,1.31,0,0,1,1.73-.33,3.62,3.62,0,0,0,2.19.68,1.51,1.51,0,0,0,.87-.44,1.14,1.14,0,0,0,.12-1,2.41,2.41,0,0,0-1.34-1.28c-1.08-.43-1.37-1.06-1.54-2.28a1.4,1.4,0,0,0-.14-.52c-.14-.23-.38-.24-.53,0a3.45,3.45,0,0,0-.45,1.87c-.05.67-.27.78-.67.83a1.35,1.35,0,0,1-.56-.1c-.5-.21-.71,0-.89.5a19.6,19.6,0,0,1-1.14,2.35,1.3,1.3,0,0,1-.8.52,1.59,1.59,0,0,1-1.66-1.16,1.39,1.39,0,0,1,.88-1.78l.46-.2c.13-.05.08-.2.07-.3a2.13,2.13,0,0,0-.82-1.44A.46.46,0,0,0,279,13a1,1,0,0,1-.88-.23.78.78,0,0,1-.07-.86,6.12,6.12,0,0,1,1.21-1.62c.43-.44.83-.83.63-1.51a2.87,2.87,0,0,0-1.46-1.67c-.21-.07-.27.08-.2.26s.25.6.34.85c.27.75,0,1.14-.78,1.13a7.46,7.46,0,0,1-1.18-.21c-.09,0-.41.08-.08.41l.4.42c.22.22.56.38.67.64a1.87,1.87,0,0,1,.09,1.12,1,1,0,0,1-.72.45,3.81,3.81,0,0,1-3.18-2.29,1,1,0,0,1,.25-.81c.13-.16.52-.19.81-.2s.46,0,.52-.08a1.73,1.73,0,0,0-.55-1.62,6.64,6.64,0,0,1-1-1.2,2.45,2.45,0,0,1-.34-1.33.8.8,0,0,1,.19-.51c.25-.34.63-.31,1-.4l.59.46C274.63,4.28,274.18,4.12,274,4.62ZM256.51,7.9c.33.17.62.3.88.46s.55.38.83.57c.78.52,1.15.43,1.74-.44s.51-1-.29-1.54a3,3,0,0,1-.35-.27,1.55,1.55,0,0,1,.32-2.37.85.85,0,0,1,.68,0c.54.26,1,.61,1.57.88a2,2,0,0,1,1.18,2.07,2,2,0,0,0,0,.55,7.15,7.15,0,0,0,.49,1.67,1.07,1.07,0,0,0,.87.43c.24,0,.48-.37.69-.6s.1-.31.17-.46a2.23,2.23,0,0,1,2.24-1.59,4.2,4.2,0,0,1,.17-.72c.23-.53,0-.81-.39-1.07a7.64,7.64,0,0,1-1.32-1c-1.41-1.38-1.79-1.75-3.46-.55a1,1,0,0,1-.89,0A2,2,0,0,0,260,3.8a6.3,6.3,0,0,0-3.51,3.78A3,3,0,0,0,256.51,7.9Zm-.42-.15c-.66.95-.82,1-2,1.11a4.18,4.18,0,0,0-1.27.28.93.93,0,0,0-.63,1.14A1.83,1.83,0,0,0,254,11.54c.53-.12,1.29-.38,1.44-.77A16.7,16.7,0,0,0,256.09,7.75Zm12.42,0c1.17.59,1.88.58,2.43,0Zm-8.62,7.9c-.38-1.07-.38-1.07-1-.92Z"/><path class="cls-2" d="M292.56,40.21a32.52,32.52,0,0,1-3.18,7.44,2.83,2.83,0,0,0-.34,1.59c.23,2.76.67,6.46.94,9.21.12,1.27-.07,1.56-1.33,1.32-2.58-.5-5.31-1.47-7.9-1.76a3.72,3.72,0,0,0-2.41.48,30.49,30.49,0,0,1-12.51,4.09,1.73,1.73,0,0,0-.44.14h-4.74c-1.54-.26-3.1-.48-4.63-.8a31,31,0,0,1-23.79-25.14c-.17-1.09-.32-2.19-.48-3.29V29.58c.22-1.33.35-2.68.67-4,2.22-9.26,7.16-16.5,15.71-21.06v.79a29.34,29.34,0,0,0-15.46,23.5,30.18,30.18,0,0,0,24.19,32.59,29.79,29.79,0,0,0,21.21-3.57,3.84,3.84,0,0,1,2.48-.54,52.12,52.12,0,0,1,7.66,1.75c.35,0,.71.18,1.15.21-.19-1.88-.39-3.82-.57-5.62-.13-1.25-.45-3.43-.5-4.68a3.09,3.09,0,0,1,.43-1.59,31.55,31.55,0,0,0,3.07-7Z"/><path class="cls-2" d="M275.27,3.8A29.16,29.16,0,0,0,255.4,2c-1,.24-3,.74-2.75,1.69l-.55,0v0a1.85,1.85,0,0,1,1.32-1.76,30.8,30.8,0,0,1,22.11,1.24C275.78,3.44,275.65,3.66,275.27,3.8Z"/><path class="cls-3" d="M35,44.61c0,7-5,15.22-17.26,15.22-9.54,0-16-6.06-17.72-12.11l3.86-1.21c1.21,4.31,5.91,9.23,13.86,9.23s13.17-4.31,13.17-11.13c0-6.36-5-8.25-12.64-10.29-7-1.9-16.13-4.55-16.13-14.62,0-8.63,7-14.76,15.22-14.76,7.42,0,13,3.94,15.29,11.05L28.7,17C27,11.6,23,9,17.34,9c-6,0-11.13,4.32-11.13,10.75s5.07,8.56,13.1,10.68C26.5,32.35,35,34.85,35,44.61Z"/><path class="cls-3" d="M62.91,39.77V58.85h-4V39.77L38,5.85h4.77L61,36,79.12,5.85h4.69Z"/><path class="cls-3" d="M132.41,5.85v53h-4L96.15,12.74V58.85h-4v-53h4L128.4,52V5.85Z"/><path class="cls-3" d="M186.47,32.35c0,15.14-11,26.5-26.12,26.5H144.52v-53h15.83C175.49,5.85,186.47,17.21,186.47,32.35Zm-4,0c0-12.87-9.17-22.41-22.11-22.41H148.54V54.83h11.81C173.29,54.83,182.46,45.29,182.46,32.35Z"/><path class="cls-3" d="M225.53,54.83v4H196.31v-53h28.54V9.94H200.32V29.39h22.79v4H200.32V54.83Z"/></g></g></svg>